<svg width="17" height="16" viewBox="0 0 17 16" fill="none" xmlns="http://www.w3.org/2000/svg">
<g clip-path="url(#clip0_1_2753)">
<path d="M12.2845 10.859C12.2497 10.824 12.2082 10.7963 12.1625 10.7776C12.1168 10.7589 12.0679 10.7495 12.0185 10.75H11.6065C12.4212 9.80782 12.9481 8.65136 13.1243 7.41829C13.3005 6.18521 13.1186 4.92748 12.6003 3.79483C12.082 2.66218 11.2492 1.70233 10.2009 1.02955C9.15263 0.356771 7.9331 -0.000594944 6.6875 7.43492e-07C3.0975 7.43492e-07 0.187501 2.91 0.187501 6.5C0.186905 7.7456 0.544271 8.96513 1.21705 10.0134C1.88983 11.0617 2.84968 11.8945 3.98233 12.4128C5.11498 12.9311 6.37271 13.113 7.60579 12.9368C8.83886 12.7606 9.99532 12.2337 10.9375 11.419V11.831C10.9375 11.931 10.9775 12.025 11.0475 12.097L14.8405 15.891C14.8753 15.9259 14.9167 15.9536 14.9623 15.9725C15.0078 15.9914 15.0567 16.0012 15.106 16.0012C15.1553 16.0012 15.2042 15.9914 15.2497 15.9725C15.2953 15.9536 15.3367 15.9259 15.3715 15.891L16.0785 15.184C16.1487 15.1137 16.1882 15.0184 16.1882 14.919C16.1882 14.8196 16.1487 14.7243 16.0785 14.654L12.2845 10.859ZM6.6875 11.5C3.9245 11.5 1.6875 9.262 1.6875 6.5C1.6875 3.737 3.9245 1.5 6.6875 1.5C9.4495 1.5 11.6875 3.737 11.6875 6.5C11.6875 9.262 9.4495 11.5 6.6875 11.5Z" fill="white"/>
</g>
<defs>
<clipPath id="clip0_1_2753">
<rect width="16" height="16" fill="white" transform="translate(0.1875)"/>
</clipPath>
</defs>
</svg>
